<svg width="24" height="23" viewBox="0 0 24 23" fill="none" xmlns="http://www.w3.org/2000/svg">
<path d="M23.4124 9.94315L14.0452 0.836302C12.8982 -0.278767 11.1029 -0.278767 9.95592 0.836302L0.612058 9.92213C0.046359 10.4294 -0.148224 11.2261 0.116887 11.9505C0.380854 12.6748 1.03713 13.1426 1.78865 13.1426H2.4003V22.1785C2.4003 22.6321 2.75821 23 3.20039 23H20.8014C21.2436 23 21.6015 22.6323 21.6015 22.1785V13.1426H22.2124C22.9632 13.1426 23.6166 12.6748 23.8816 11.9509C24.1472 11.2257 23.9554 10.429 23.4124 9.94296L23.4124 9.94315ZM17.5192 11.8235C17.2653 13.1692 16.7277 13.9465 16.0021 14.4184C16.2685 16.0434 15.8506 18.0623 15.0803 19.3276C14.9105 19.6078 14.5971 19.7583 14.2747 19.7035C13.9571 19.6509 13.7008 19.4086 13.6242 19.0879C13.3031 17.7358 12.8577 16.1862 12.0021 15.6071C11.146 16.1862 10.7009 17.7358 10.3794 19.0875C10.303 19.4082 10.0466 19.6504 9.7289 19.7031C9.40672 19.7581 9.09344 19.6072 8.92324 19.3272C8.15329 18.0622 7.73513 16.0435 8.00152 14.418C7.27567 13.9459 6.73826 13.1685 6.48434 11.8231C6.0098 9.30579 7.72641 7.39255 9.60171 7.39255C10.7268 7.39255 11.4768 8.29101 12.0017 9.03555C12.5269 8.29101 13.2767 7.39255 14.4018 7.39255C16.2775 7.39255 17.9941 9.30579 17.5193 11.8235H17.5192Z" fill="white"/>
</svg>
