<svg width="23" height="23" viewBox="0 0 23 23" fill="none" xmlns="http://www.w3.org/2000/svg">
<path d="M23 11.5C23 17.852 17.852 23 11.5 23C5.14805 23 0 17.852 0 11.5C0 5.14805 5.14805 0 11.5 0C17.852 0 23 5.14805 23 11.5ZM14.375 15.8125C14.375 14.6041 13.6338 13.5709 12.5781 13.1486V3.95312C12.5781 3.35566 12.0975 2.875 11.5 2.875C10.9025 2.875 10.4219 3.35566 10.4219 3.95312V13.1486C9.36621 13.5754 8.625 14.6086 8.625 15.8125C8.625 17.3982 9.91426 18.6875 11.5 18.6875C13.0857 18.6875 14.375 17.3982 14.375 15.8125ZM6.46875 7.90625C7.26387 7.90625 7.90625 7.26387 7.90625 6.46875C7.90625 5.67363 7.26387 5.03125 6.46875 5.03125C5.67363 5.03125 5.03125 5.67363 5.03125 6.46875C5.03125 7.26387 5.67363 7.90625 6.46875 7.90625ZM5.75 11.5C5.75 10.7049 5.10762 10.0625 4.3125 10.0625C3.51738 10.0625 2.875 10.7049 2.875 11.5C2.875 12.2951 3.51738 12.9375 4.3125 12.9375C5.10762 12.9375 5.75 12.2951 5.75 11.5ZM18.6875 12.9375C19.4826 12.9375 20.125 12.2951 20.125 11.5C20.125 10.7049 19.4826 10.0625 18.6875 10.0625C17.8924 10.0625 17.25 10.7049 17.25 11.5C17.25 12.2951 17.8924 12.9375 18.6875 12.9375ZM17.9688 6.46875C17.9688 5.67363 17.3264 5.03125 16.5312 5.03125C15.7361 5.03125 15.0938 5.67363 15.0938 6.46875C15.0938 7.26387 15.7361 7.90625 16.5312 7.90625C17.3264 7.90625 17.9688 7.26387 17.9688 6.46875Z" fill="white"/>
</svg>
