<svg width="19" height="23" viewBox="0 0 19 23" fill="none" xmlns="http://www.w3.org/2000/svg">
  <path fill-rule="evenodd" clip-rule="evenodd" d="M6.06413 16.0829H12.0839C12.5376 16.0829 12.9139 15.7029 12.9139 15.2447C12.9139 14.7865 12.5376 14.4176 12.0839 14.4176H6.06413C5.61043 14.4176 5.2342 14.7865 5.2342 15.2447C5.2342 15.7029 5.61043 16.0829 6.06413 16.0829ZM9.80438 8.8294H6.06413C5.61043 8.8294 5.2342 9.2094 5.2342 9.66764C5.2342 10.1259 5.61043 10.4947 6.06413 10.4947H9.80438C10.2581 10.4947 10.6343 10.1259 10.6343 9.66764C10.6343 9.2094 10.2581 8.8294 9.80438 8.8294ZM17.7014 7.85215C17.9615 7.84915 18.2447 7.84588 18.502 7.84588C18.7787 7.84588 19 8.06941 19 8.34882V17.3347C19 20.1065 16.7758 22.3529 14.0315 22.3529H5.22306C2.34595 22.3529 0 19.9947 0 17.0888V5.04059C0 2.26882 2.23529 0 4.99068 0H10.8998C11.1875 0 11.4089 0.234706 11.4089 0.514118V4.11294C11.4089 6.15824 13.0798 7.83471 15.1048 7.84588C15.5778 7.84588 15.9948 7.84942 16.3598 7.85251C16.6437 7.85492 16.8961 7.85706 17.1188 7.85706C17.2763 7.85706 17.4805 7.8547 17.7014 7.85215ZM18.0064 6.2208C17.0968 6.22415 16.0246 6.2208 15.2533 6.21297C14.0294 6.21297 13.0213 5.1948 13.0213 3.95868V1.01256C13.0213 0.530856 13.6 0.291679 13.9309 0.639268C14.5297 1.26816 15.3527 2.13261 16.1718 2.99312C16.989 3.85153 17.8024 4.70602 18.386 5.31886C18.7091 5.6575 18.4723 6.21968 18.0064 6.2208Z" fill="black"/>
</svg>
