<svg width="16" height="20" viewBox="0 0 16 20" fill="none" xmlns="http://www.w3.org/2000/svg">
<path d="M15.3597 19.9999H0.640057C0.286551 19.9999 0 19.7134 0 19.3599V0.640064C0 0.286554 0.286543 0 0.640057 0H11.5798V3.64567C11.5798 4.07328 11.9266 4.42009 12.3542 4.42009H15.9999V19.3599C15.9999 19.7134 15.7133 20 15.3598 20L15.3597 19.9999ZM2.49573 12.96H5.15164V12.2209H3.30889V9.26404H2.49569L2.49573 12.96ZM7.55919 13.0233C8.69966 13.0233 9.52861 12.1627 9.52861 11.1121V11.1015C9.52861 10.0508 8.71013 9.20067 7.56965 9.20067C6.42932 9.20067 5.60038 10.0613 5.60038 11.1121V11.1227C5.60038 12.1733 6.41871 13.0233 7.55919 13.0233ZM7.56965 12.2736C6.91495 12.2736 6.45039 11.7456 6.45039 11.1121V11.1015C6.45039 10.4679 6.90449 9.95045 7.55919 9.95045C8.21389 9.95045 8.67845 10.4785 8.67845 11.1121V11.1227C8.67845 11.7562 8.22435 12.2737 7.56965 12.2737V12.2736ZM12.0313 13.0233C12.7072 13.0233 13.2298 12.7594 13.61 12.4373V10.8323H12.005V11.5345H12.8233V12.0624C12.6174 12.2103 12.3535 12.2842 12.0577 12.2842C11.403 12.2842 10.9384 11.7879 10.9384 11.1121V11.1015C10.9384 10.4732 11.4083 9.95044 11.9997 9.95044C12.4274 9.95044 12.6807 10.0877 12.9659 10.3254L13.478 9.7077C13.0926 9.38027 12.6914 9.20074 12.026 9.20074C10.9068 9.20074 10.0885 10.0614 10.0885 11.1121V11.1227C10.0885 12.2157 10.8804 13.0234 12.0313 13.0234V13.0233ZM12.0001 3.36023V0.000335711L16 4.00029H12.6401C12.2866 4.00029 12.0001 3.71375 12.0001 3.36023Z" fill="white"/>
</svg>
