<svg width="15" height="20" viewBox="0 0 15 20" fill="none" xmlns="http://www.w3.org/2000/svg">
<path fill-rule="evenodd" clip-rule="evenodd" d="M4.15618 2.3863H11.1393C11.2775 2.3863 11.4072 2.31937 11.4824 2.20618C11.5624 2.09316 11.5791 1.94667 11.5284 1.81684L10.7585 0.267912C10.6954 0.104604 10.5406 0 10.3688 0H4.92645C4.75473 0 4.59984 0.104609 4.53711 0.267912L3.76684 1.81684C3.71655 1.94667 3.73337 2.09316 3.80872 2.20618C3.88827 2.31937 4.01793 2.3863 4.15618 2.3863ZM8.90964 6.59651C8.90964 6.91452 9.16825 7.17332 9.48645 7.17332C9.80464 7.17332 10.0633 6.91453 10.0634 6.59651C10.0634 6.27833 9.80465 6.01953 9.48645 6.01953C9.16844 6.01953 8.90964 6.27831 8.90964 6.59651ZM6.21417 10.551C5.89597 10.551 5.63736 10.2922 5.63736 9.97424C5.63736 9.65604 5.89616 9.39725 6.21417 9.39725C6.53237 9.39725 6.79115 9.65605 6.79115 9.97424C6.79098 10.2923 6.53235 10.551 6.21417 10.551ZM12.0479 0.984082L12.2953 1.47804L12.3123 1.51571C12.4626 1.90928 12.4082 2.34469 12.1779 2.67129C11.948 3.01874 11.5582 3.22392 11.1396 3.22392H4.15639C3.74654 3.22392 3.36107 3.02295 3.10981 2.67129C2.88378 2.32783 2.83769 1.89664 2.98838 1.51571L3.00135 1.47804L3.24788 0.984082H1.89556C1.01261 0.984082 0.296665 1.70425 0.296665 2.58751V18.3751C0.296665 19.2583 1.01261 19.9743 1.89556 19.9743H13.4003C14.2795 19.9743 15 19.2583 15 18.3751V2.58751C15 1.70425 14.2795 0.984082 13.4003 0.984082H12.0479ZM12.6381 18.0779H8.20872C7.97428 18.0779 7.79013 17.8938 7.79013 17.6593C7.79013 17.4291 7.97428 17.2407 8.20872 17.2407H12.6381C12.8683 17.2407 13.0567 17.4291 13.0567 17.6593C13.0567 17.8938 12.8683 18.0779 12.6381 18.0779ZM12.638 16.2819H5.01869H5.01842C4.78801 16.2819 4.59965 16.0936 4.59965 15.8633C4.59965 15.6331 4.78801 15.4447 5.01824 15.4447H12.638C12.8682 15.4447 13.0565 15.6331 13.0565 15.8633C13.0565 16.0936 12.8682 16.2819 12.638 16.2819ZM12.6382 14.4859H2.65343C2.42354 14.4859 2.23465 14.2974 2.23465 14.0673C2.23465 13.8371 2.42336 13.6488 2.65325 13.6488H12.6382C12.8685 13.6488 13.0568 13.8371 13.0568 14.0673C13.0568 14.2976 12.8685 14.4859 12.6382 14.4859ZM10.9013 6.59859C10.9013 6.85808 10.8256 7.10093 10.7 7.31032L13.4211 10.9654C13.5592 11.1538 13.5215 11.4134 13.3332 11.5515C13.2619 11.606 13.1741 11.6353 13.0861 11.6353C12.9568 11.6353 12.8306 11.5766 12.7516 11.4678L10.0806 7.8756C9.9001 7.95935 9.69964 8.00964 9.48605 8.00964C9.23445 8.00964 8.9958 7.9385 8.79114 7.82128L7.45107 9.30328C7.55988 9.50428 7.62681 9.73031 7.62681 9.97316C7.62681 10.756 6.99515 11.3882 6.21595 11.3882C5.43308 11.3882 4.80088 10.756 4.80088 9.97316C4.80088 9.7387 4.86413 9.51687 4.96874 9.3201L2.57365 6.92537V7.70403C2.57365 7.93426 2.38581 8.12262 2.15505 8.12262C1.92481 8.12262 1.73645 7.93426 1.73645 7.70403V5.92064C1.73645 5.86194 1.74521 5.80762 1.76992 5.75313C1.76992 5.74892 1.77413 5.74892 1.77413 5.74892C1.7955 5.69863 1.82021 5.65676 1.85788 5.61909C1.89556 5.58141 1.93743 5.55636 1.98351 5.53533C1.98589 5.53533 1.98702 5.53419 1.98811 5.5331C1.98911 5.53209 1.99008 5.53113 1.99192 5.53113C2.04624 5.50607 2.10074 5.49766 2.15979 5.49766H3.94335C4.17307 5.49766 4.36195 5.68602 4.36195 5.91626C4.36195 6.14649 4.17324 6.33485 3.94335 6.33485H3.16416L5.55889 8.72959C5.75599 8.6248 5.97747 8.56208 6.21612 8.56208C6.44635 8.56208 6.66029 8.6206 6.85285 8.72118L8.21729 7.20975C8.12565 7.02139 8.0708 6.81621 8.0708 6.59859C8.0708 5.81571 8.70704 5.18351 9.48624 5.18351C10.2646 5.18351 10.9013 5.81571 10.9013 6.59859Z" fill="white"/>
</svg>
