<svg width="27" height="27" viewBox="0 0 20 20" fill="none" xmlns="http://www.w3.org/2000/svg">
  <path fill-rule="evenodd" clip-rule="evenodd" d="M17.308 7.01602L19.756 8.02792C19.9041 8.09199 20 8.23594 20 8.4V11.6C20 11.76 19.9041 11.9039 19.7559 11.9682L17.3119 12.9801C17.3042 12.9953 17.2982 13.0106 17.2918 13.0268C17.2881 13.0362 17.2842 13.0458 17.2799 13.056L18.2918 15.5C18.3558 15.652 18.3197 15.824 18.2078 15.9359L15.9398 18.2039C15.8238 18.3199 15.6519 18.3519 15.5039 18.292L13.0519 17.276L12.992 17.3L11.9721 19.752C11.908 19.9 11.7641 20 11.6 20H8.40411C8.24004 20 8.0959 19.9 8.03223 19.752L7.02013 17.308C6.9961 17.3 6.97208 17.2881 6.94806 17.276L4.5 18.292C4.35215 18.3519 4.18008 18.3199 4.06406 18.2039L1.79611 15.9359C1.6842 15.824 1.64807 15.6519 1.71213 15.5L2.72403 13.0519C2.72002 13.0399 2.71504 13.0279 2.71006 13.0159C2.70508 13.0039 2.7001 12.9919 2.6961 12.9799L0.248046 11.968C0.1 11.9039 0 11.76 0 11.6V8.39999C0 8.23593 0.1 8.09198 0.248046 8.02792L2.7 7.01602L2.7 7.01601C2.70801 6.99199 2.71602 6.96797 2.72402 6.94786L1.71212 4.4959C1.64806 4.34805 1.68419 4.17598 1.79611 4.05996L4.06406 1.79201C4.18008 1.6801 4.35195 1.64397 4.5 1.70803L6.94785 2.71993C6.97187 2.71192 6.9959 2.70391 7.01992 2.692L8.03202 0.243945C8.09608 0.0959 8.24003 0 8.40409 0H11.6C11.7641 0 11.908 0.0959 11.9723 0.24414L12.9922 2.69609C13.0021 2.7001 13.0121 2.70508 13.0221 2.71006C13.0322 2.71504 13.0422 2.72002 13.0521 2.72402L15.5041 1.70802C15.656 1.64396 15.824 1.6799 15.94 1.79201L18.208 4.05996C18.3199 4.17598 18.356 4.34786 18.292 4.4959L17.2801 6.94395C17.2841 6.95597 17.289 6.96798 17.294 6.98C17.299 6.992 17.304 7.00401 17.308 7.01602ZM13.384 14.648C13.64 14.464 13.8881 14.2439 14.132 13.9999C15.1759 12.9198 15.7519 11.4999 15.7519 9.99993C15.7519 6.82792 13.1719 4.25192 10.0039 4.25192C6.83202 4.25192 4.25192 6.82787 4.25192 9.99993C4.25192 11.4999 4.82787 12.9198 5.87182 14.004C6.11187 14.2439 6.36382 14.464 6.61987 14.648C7.60797 15.3679 8.77987 15.7519 10.0039 15.7519C11.224 15.7519 12.392 15.3679 13.384 14.648ZM9.99955 10.223C11.0756 10.223 11.9515 9.34699 11.9515 8.27104C11.9515 7.19899 11.0755 6.32299 9.99955 6.32299C8.92355 6.32299 8.0515 7.19899 8.0515 8.27104C8.0517 9.34704 8.92355 10.223 9.99955 10.223ZM10.0036 10.8229C8.5381 10.8229 7.185 11.5156 6.32755 12.6508C6.17051 12.8586 6.17832 13.1503 6.35294 13.3434C6.38399 13.3778 6.41583 13.412 6.44825 13.4456C6.65254 13.6538 6.86934 13.8423 7.08885 14.0014C7.9412 14.6223 8.9486 14.9499 10.0029 14.9499C11.0545 14.9499 12.06 14.6223 12.9107 14.0028C13.1318 13.8423 13.3498 13.6532 13.5592 13.4397C13.5984 13.3991 13.6365 13.3579 13.6738 13.3161C13.8322 13.1384 13.8388 12.8745 13.6972 12.6831C12.8435 11.5288 11.4795 10.8229 10.0035 10.8229L10.0036 10.8229Z" fill="black"/>
</svg>
