<svg width="24" height="23" viewBox="0 0 24 23" fill="none" xmlns="http://www.w3.org/2000/svg">
<path fill-rule="evenodd" clip-rule="evenodd" d="M1.97047 7.20212C1.86696 7.10678 1.78244 6.99509 1.72261 6.86993H1.72863C1.69596 6.79908 1.66861 6.72558 1.64961 6.64656C1.58142 6.36338 1.62511 6.072 1.77478 5.82147C2.81507 4.07881 4.29089 2.62221 6.04434 1.60379C6.93191 1.08926 7.88498 0.688895 8.87607 0.419376C9.88899 0.141504 10.9427 0 12.0047 0C13.0639 0.00284933 14.1177 0.141693 15.1333 0.419376C16.1217 0.688895 17.0746 1.08639 17.965 1.60379C19.7187 2.62201 21.1945 4.07881 22.2346 5.82147C22.3843 6.06936 22.4277 6.36337 22.3598 6.64656C22.3434 6.72292 22.3161 6.79908 22.2807 6.86993C22.2181 6.99509 22.1364 7.10678 22.0329 7.20212L22.031 7.20404C22.0208 7.21425 22.0104 7.2246 21.9975 7.23479C21.9839 7.24581 21.973 7.25398 21.9594 7.2648C21.958 7.2648 21.9567 7.26618 21.9553 7.26755C21.9539 7.26893 21.9525 7.27031 21.9512 7.27031C21.943 7.27582 21.932 7.28399 21.9212 7.29215C21.9144 7.29624 21.9076 7.30098 21.9008 7.30573C21.894 7.31048 21.8872 7.31523 21.8804 7.31931C21.8662 7.32936 21.8505 7.33804 21.8355 7.34628C21.8304 7.34911 21.8254 7.35188 21.8205 7.35464L21.8069 7.36281C21.8017 7.36537 21.7963 7.36819 21.7907 7.37112C21.7785 7.37751 21.7654 7.38436 21.7523 7.38997C21.7483 7.3913 21.7442 7.39334 21.7401 7.39538C21.736 7.39742 21.7319 7.39946 21.7278 7.40079C21.721 7.40355 21.7149 7.40626 21.7087 7.40896C21.7026 7.41167 21.6965 7.41438 21.6897 7.41713C21.678 7.42182 21.6645 7.42637 21.6506 7.43102L21.6433 7.43346C21.6422 7.43401 21.6409 7.43468 21.6396 7.43539C21.6345 7.43815 21.628 7.44163 21.6215 7.44163C21.5943 7.4498 21.567 7.45797 21.5398 7.46347C21.4553 7.48266 21.371 7.49348 21.2838 7.49348C21.2321 7.49348 21.1776 7.49082 21.1259 7.48266C20.7992 7.43346 20.5024 7.24029 20.3308 6.95159C19.4815 5.53563 18.2805 4.34568 16.8511 3.51796C16.1268 3.09859 15.3534 2.77457 14.5475 2.55405C13.7225 2.32803 12.8649 2.21369 12.0017 2.21369C11.1386 2.21369 10.2809 2.32803 9.45581 2.55405C8.64993 2.77456 7.87652 3.09859 7.15228 3.51796C5.72285 4.34568 4.51923 5.53296 3.6725 6.95159C3.50096 7.2403 3.20411 7.43365 2.87742 7.48266L2.8725 7.48316C2.82248 7.48832 2.77236 7.49348 2.71958 7.49348C2.6324 7.49348 2.54788 7.48247 2.46355 7.46347C2.43639 7.45797 2.40904 7.4498 2.38188 7.44163C2.37877 7.44062 2.37604 7.43919 2.37341 7.43782C2.36913 7.43558 2.36509 7.43346 2.36003 7.43346C2.3484 7.42878 2.33484 7.42423 2.321 7.41959C2.31857 7.41877 2.31613 7.41795 2.31369 7.41713C2.30685 7.41438 2.30073 7.41167 2.2946 7.40896C2.28848 7.40626 2.28235 7.40355 2.27551 7.40079C2.27143 7.39946 2.26734 7.39742 2.26326 7.39538C2.25918 7.39334 2.25509 7.3913 2.25101 7.38997C2.23183 7.3818 2.21549 7.37363 2.1965 7.36281L2.18282 7.35464C2.17786 7.35181 2.1727 7.34898 2.16744 7.3461C2.1526 7.33796 2.13702 7.32941 2.12299 7.31931C2.10932 7.31115 2.09583 7.30298 2.08216 7.29215C2.07448 7.28831 2.06819 7.28319 2.06142 7.27766C2.05847 7.27526 2.05543 7.27279 2.05215 7.27031C2.04949 7.27031 2.04398 7.2648 2.04398 7.2648C2.03884 7.26066 2.0337 7.25692 2.02871 7.25329C2.02043 7.24727 2.01256 7.24155 2.0058 7.23479C2.00039 7.22938 1.99426 7.22392 1.98814 7.21846C1.98201 7.213 1.97589 7.20754 1.97047 7.20212ZM19.367 11.8854C19.367 10.8889 19.1737 9.92495 18.7898 9.01555C18.4194 8.13882 17.8886 7.34908 17.2105 6.67118C16.5353 5.99312 15.7456 5.46226 14.8688 5.08922C13.9621 4.70251 12.9955 4.50652 12.0016 4.50384H11.9852C10.986 4.50384 10.0192 4.6972 9.11267 5.07837C8.23308 5.44875 7.4462 5.97693 6.77097 6.65216C6.09574 7.3274 5.56205 8.11427 5.19169 8.99119C4.80783 9.89792 4.61161 10.8645 4.60899 11.8638C4.60899 12.727 4.75049 13.5711 5.03919 14.3743C5.31687 15.1504 5.72259 15.872 6.24281 16.5172C6.75754 17.157 7.37272 17.7016 8.06716 18.1373C8.77506 18.5812 9.5456 18.8997 10.3572 19.0849C10.4471 19.1038 10.5261 19.1557 10.5859 19.2264L11.8875 20.803C11.9229 20.8465 11.9692 20.852 11.9911 20.852C12.0129 20.852 12.0591 20.8465 12.0946 20.803L13.3962 19.2264C13.4534 19.1555 13.5351 19.1065 13.6249 19.0849C14.4363 18.9023 15.2042 18.5838 15.9094 18.1399C16.6038 17.7042 17.2164 17.1597 17.7311 16.5224C18.2511 15.8798 18.6568 15.161 18.9347 14.3877C19.2234 13.5872 19.3704 12.7431 19.3704 11.8853L19.367 11.8854ZM8.63052 12.8712C8.11049 12.8712 7.68557 12.4491 7.68557 11.9262C7.68557 11.4033 8.10761 10.9813 8.63052 10.9813C9.15343 10.9813 9.57546 11.4033 9.57546 11.9262C9.57546 12.4491 9.15343 12.8712 8.63052 12.8712ZM11.9851 12.8712C11.4651 12.8712 11.0402 12.4491 11.0402 11.9262C11.0402 11.4033 11.4622 10.9813 11.9851 10.9813C12.508 10.9813 12.9301 11.4033 12.9301 11.9262C12.9301 12.4491 12.508 12.8712 11.9851 12.8712ZM15.3398 12.8712C14.8197 12.8712 14.3948 12.4491 14.3948 11.9262C14.3948 11.4033 14.8168 10.9813 15.3398 10.9813C15.8627 10.9813 16.2847 11.4033 16.2847 11.9262C16.2847 12.4491 15.8627 12.8712 15.3398 12.8712ZM16.3281 20.8574C16.2981 20.8574 16.2682 20.8574 16.2409 20.8656L14.4221 21.1978C14.1579 21.2468 13.9811 21.4999 14.0301 21.7641C14.0736 21.9983 14.2779 22.1643 14.5093 22.1643C14.5393 22.1643 14.5691 22.1643 14.5965 22.1562L16.4153 21.824C16.6795 21.775 16.8563 21.5218 16.8073 21.2576C16.7638 21.0234 16.5594 20.8574 16.3281 20.8574ZM17.4928 20.8563L17.1741 20.9148L17.2725 21.4504L17.5912 21.3919L17.4928 20.8563ZM23.2064 12.659C23.1764 12.6482 23.1437 12.6372 23.111 12.629L23.0973 12.678C22.8412 13.5718 22.585 14.4663 22.3289 15.3607L22.3278 15.3645L22.3268 15.368L22.3258 15.3716L22.3217 15.3858C22.0629 16.2896 21.804 17.1935 21.5452 18.0966C21.6622 18.1348 21.7849 18.1538 21.9019 18.1538C22.4056 18.1538 22.8821 17.8242 23.0428 17.2934C23.3669 16.2315 23.6719 15.164 23.9577 14.0939C24.1237 13.4759 23.7862 12.8768 23.2035 12.659L23.2064 12.659ZM21.7087 7.84995C21.8476 7.80911 21.9811 7.74928 22.1036 7.67027L22.1036 7.67007C22.1416 7.64557 22.1771 7.62107 22.2125 7.5939C22.776 8.92555 23.0892 10.3877 23.0892 11.9261V11.9833C23.0239 11.7028 22.8223 11.4768 22.512 11.3516C22.444 10.1155 22.1661 8.93638 21.7087 7.84995ZM20.3094 18.859C20.2359 19.0305 20.116 19.2729 19.9255 19.5289C19.4437 20.1824 18.7764 20.6179 17.9405 20.8305L18.0059 21.0919C19.1305 20.8087 19.792 20.1661 20.1487 19.6788C20.3802 19.3629 20.5162 19.0716 20.5897 18.8837H20.5515C20.4725 18.8837 20.3909 18.8755 20.3092 18.8565L20.3094 18.859ZM22.2805 11.7112C22.618 11.8118 22.7568 12.0434 22.6725 12.3756L22.678 12.3779L22.6765 12.382C22.6742 12.3881 22.6724 12.393 22.6724 12.3997L22.6046 12.637L22.6035 12.641C22.0873 14.4477 21.5711 16.254 21.0523 18.058C21.0197 18.1726 20.968 18.2624 20.9053 18.3304C20.8155 18.4229 20.6983 18.4719 20.5568 18.4719C20.4968 18.4719 20.4314 18.4637 20.3634 18.4474C20.2626 18.4229 20.1646 18.3957 20.0666 18.3657C20.0195 18.3523 19.9723 18.3381 19.9251 18.324L19.9246 18.3238C19.8767 18.3094 19.8287 18.2951 19.7807 18.2814C19.3723 18.1617 19.239 17.9247 19.356 17.5163C19.6174 16.5986 19.8787 15.681 20.1429 14.7634L20.3525 14.0281C20.5514 13.3294 20.75 12.6318 20.9517 11.9343C21.0334 11.6458 21.1996 11.5015 21.4446 11.5015C21.5099 11.5015 21.5834 11.5123 21.6624 11.5342C21.8313 11.5805 22.0001 11.6295 22.1661 11.6785L22.2805 11.7112ZM0.892138 12.626L0.889427 12.6267L0.889257 12.6261L0.892138 12.626ZM0.889427 12.6267L0.902933 12.6751C1.16369 13.5849 1.42444 14.4954 1.68518 15.4059L1.68563 15.4074C1.94211 16.3031 2.19859 17.1987 2.45509 18.0936C2.33809 18.1318 2.21824 18.1508 2.09839 18.1508C1.59465 18.1508 1.11813 17.8215 0.957444 17.2904C0.636093 16.2312 0.3284 15.1637 0.0425479 14.091C-0.123647 13.47 0.211417 12.8712 0.796793 12.656L0.812965 12.6505C0.838674 12.6417 0.863236 12.6334 0.889427 12.6267ZM2.29691 7.8499C1.83952 8.93634 1.55899 10.1153 1.49365 11.3516L1.49368 11.3518C1.18333 11.4742 0.981813 11.7003 0.916473 11.9835V11.9263C0.916473 10.3905 1.22684 8.92551 1.7932 7.59406C1.82853 7.62122 1.86386 7.64572 1.90203 7.67023C2.02454 7.74924 2.15806 7.80907 2.29691 7.8499ZM3.86305 14.761C3.72832 14.2901 3.59353 13.8184 3.45875 13.3467C3.32392 12.8749 3.18908 12.403 3.0543 11.9319C2.96997 11.6432 2.80643 11.4991 2.5614 11.4991C2.49341 11.4991 2.4199 11.5099 2.34089 11.5317C2.20416 11.5693 2.06929 11.6085 1.93328 11.6481L1.8372 11.6761L1.72286 11.7087C1.38515 11.8094 1.24631 12.0436 1.33083 12.3731C1.33083 12.3799 1.33263 12.3848 1.33486 12.3909L1.33634 12.395C1.80626 14.0482 2.28043 15.6993 2.7551 17.3521L2.95647 18.0533C2.98914 18.1676 3.03814 18.2603 3.10348 18.3256C3.19332 18.421 3.3105 18.4671 3.45201 18.4671C3.51184 18.4671 3.57717 18.459 3.64536 18.4426C3.74603 18.4181 3.84422 18.391 3.94223 18.361C3.99037 18.3473 4.03852 18.3328 4.08664 18.3184L4.08672 18.3184L4.08699 18.3183C4.13405 18.3042 4.18109 18.2901 4.22808 18.2766C4.63644 18.1568 4.76999 17.9199 4.65278 17.5116C4.52344 17.0575 4.3934 16.6034 4.26335 16.1493L4.26311 16.1485C4.13045 15.6852 3.99779 15.222 3.86586 14.7587L3.86305 14.761Z" fill="white"/>
</svg>
