<svg width="23" height="17" viewBox="0 0 23 17" fill="none" xmlns="http://www.w3.org/2000/svg">
<path d="M22.2333 6.18182C22.4366 6.18182 22.6317 6.1004 22.7755 5.95552C22.9192 5.81064 23 5.614 23 5.40909V0.772727C23 0.567818 22.9192 0.371183 22.7755 0.226299C22.6317 0.0814146 22.4366 0 22.2333 0H7.66667V2.31818C7.66667 2.59433 7.52052 2.84942 7.28333 2.98741C7.04614 3.1254 6.75385 3.1254 6.51667 2.98741C6.27948 2.84942 6.13333 2.59432 6.13333 2.31818V0H0.766667C0.563364 0 0.368272 0.0814146 0.224524 0.226299C0.080776 0.371183 0 0.567818 0 0.772727V5.40909C0 5.614 0.080776 5.81064 0.224524 5.95552C0.368272 6.1004 0.563364 6.18182 0.766667 6.18182C1.58845 6.18182 2.34775 6.62373 2.75847 7.34091C3.16935 8.05809 3.16935 8.94191 2.75847 9.65909C2.34775 10.3763 1.58845 10.8182 0.766667 10.8182C0.563364 10.8182 0.368272 10.8996 0.224524 11.0445C0.080776 11.1894 0 11.386 0 11.5909V16.2273C0 16.4322 0.080776 16.6288 0.224524 16.7737C0.368272 16.9186 0.563364 17 0.766667 17H6.13333V14.6818C6.13333 14.4057 6.27948 14.1506 6.51667 14.0126C6.75386 13.8746 7.04615 13.8746 7.28333 14.0126C7.52052 14.1506 7.66667 14.4057 7.66667 14.6818V17H22.2333C22.4366 17 22.6317 16.9186 22.7755 16.7737C22.9192 16.6288 23 16.4322 23 16.2273V11.5909C23 11.386 22.9192 11.1894 22.7755 11.0445C22.6317 10.8996 22.4366 10.8182 22.2333 10.8182C21.4116 10.8182 20.6522 10.3763 20.2415 9.65909C19.8306 8.94191 19.8306 8.05809 20.2415 7.34091C20.6522 6.62373 21.4116 6.18182 22.2333 6.18182ZM7.66667 12.2091C7.66667 12.4852 7.52052 12.7403 7.28333 12.8783C7.04614 13.0163 6.75385 13.0163 6.51667 12.8783C6.27948 12.7403 6.13333 12.4852 6.13333 12.2091V9.73636C6.13333 9.46022 6.27948 9.20512 6.51667 9.06714C6.75386 8.92915 7.04615 8.92915 7.28333 9.06714C7.52052 9.20512 7.66667 9.46023 7.66667 9.73636V12.2091ZM7.66667 7.26364C7.66667 7.53978 7.52052 7.79488 7.28333 7.93286C7.04614 8.07085 6.75385 8.07085 6.51667 7.93286C6.27948 7.79488 6.13333 7.53977 6.13333 7.26364V4.79091C6.13333 4.51476 6.27948 4.25967 6.51667 4.12168C6.75386 3.9837 7.04615 3.9837 7.28333 4.12168C7.52052 4.25967 7.66667 4.51477 7.66667 4.79091V7.26364ZM16.1 9.27273H11.5C11.226 9.27273 10.9729 9.12543 10.836 8.88636C10.6991 8.6473 10.6991 8.3527 10.836 8.11364C10.9729 7.87458 11.226 7.72727 11.5 7.72727H16.1C16.374 7.72727 16.6271 7.87457 16.764 8.11364C16.9009 8.3527 16.9009 8.6473 16.764 8.88636C16.6271 9.12542 16.374 9.27273 16.1 9.27273ZM16.1 4.63636H11.5C11.226 4.63636 10.9729 4.48906 10.836 4.25C10.6991 4.01094 10.6991 3.71633 10.836 3.47727C10.9729 3.23821 11.226 3.09091 11.5 3.09091H16.1C16.374 3.09091 16.6271 3.23821 16.764 3.47727C16.9009 3.71634 16.9009 4.01094 16.764 4.25C16.6271 4.48906 16.374 4.63636 16.1 4.63636Z" fill="white"/>
</svg>
